<svg width="64" height="64" viewBox="0 0 64 64" xmlns="http://www.w3.org/2000/svg" role="img" aria-label="OpenVidu logo">
  <path d="M11 14C11 11.2 13.2 9 16 9H38C40.8 9 43 11.2 43 14V30C43 32.8 40.8 35 38 35H23L15 41C14.2 41.6 13 40.9 13.2 39.9L15.2 35H16C13.2 35 11 32.8 11 30V14Z" fill="#FFD400"/>
  <path d="M29 18C29 15.2 31.2 13 34 13H54C56.8 13 59 15.2 59 18V33C59 35.8 56.8 38 54 38H48L50.6 44.2C50.9 45.1 49.8 45.9 49 45.4L40.5 38H34C31.2 38 29 35.8 29 33V18Z" fill="#0FA7CC"/>
  <rect x="25" y="17" width="26" height="26" rx="6" fill="#16D36B"/>
  <path d="M35 26.7C35 25.7 36.1 25.1 36.9 25.7L42.7 29.8C43.5 30.3 43.5 31.5 42.7 32L36.9 36.1C36.1 36.7 35 36.1 35 35.1V26.7Z" fill="#F8FAFC"/>
</svg>
